HIERARCHY
ROOT Hips
{
	OFFSET -0.179506 -22.333345 2.821913
	CHANNELS 6 Xposition Yposition Zposition Zrotation Yrotation Xrotation 
	JOINT LeftUpLeg
	{
		OFFSET 6.951974 -9.140623 -0.681533
		CHANNELS 3 Zrotation Yrotation Xrotation
		JOINT LeftLeg
		{
			OFFSET 3.427654 -37.519855 -0.449580
			CHANNELS 3 Zrotation Yrotation Xrotation
			JOINT LeftFoot
			{
				OFFSET -1.359570 -39.796059 -4.369333
				CHANNELS 3 Zrotation Yrotation Xrotation
				JOINT LeftToe
				{
					OFFSET 2.635814 -5.579078 11.928840
					CHANNELS 3 Zrotation Yrotation Xrotation
					End Site
					{
						OFFSET 0.000000 0.000000 0.000000
					}
				}
			}
		}
	}
	JOINT RightUpLeg
	{
		OFFSET -6.767048 -9.052170 -0.431982
		CHANNELS 3 Zrotation Yrotation Xrotation
		JOINT RightLeg
		{
			OFFSET -3.829005 -38.256897 -0.885003
			CHANNELS 3 Zrotation Yrotation Xrotation
			JOINT RightFoot
			{
				OFFSET 1.577377 -39.841461 -4.231180
				CHANNELS 3 Zrotation Yrotation Xrotation
				JOINT RightToe
				{
					OFFSET -2.537174 -4.814398 12.334795
					CHANNELS 3 Zrotation Yrotation Xrotation
					End Site
					{
						OFFSET 0.000000 0.000000 0.000000
					}
				}
			}
		}
	}
	JOINT Spine
	{
		OFFSET -0.253288 10.896323 -2.669631
		CHANNELS 3 Zrotation Yrotation Xrotation
		JOINT Spine1
		{
			OFFSET 0.548704 13.518043 0.109247
			CHANNELS 3 Zrotation Yrotation Xrotation
			JOINT Spine2
			{
				OFFSET 0.145701 5.292222 2.542457
				CHANNELS 3 Zrotation Yrotation Xrotation
				JOINT Neck
				{
					OFFSET -0.277840 21.387037 -4.285703
					CHANNELS 3 Zrotation Yrotation Xrotation
					JOINT Head
					{
						OFFSET 0.515184 6.496960 5.134897
						CHANNELS 3 Zrotation Yrotation Xrotation
						End Site
						{
							OFFSET 0.000000 0.000000 0.000000
						}
					}
				}
				JOINT LeftShoulder
				{
					OFFSET 7.884473 12.174932 -3.408961
					CHANNELS 3 Zrotation Yrotation Xrotation
					JOINT LeftArm
					{
						OFFSET 9.097692 3.046888 -0.886815
						CHANNELS 3 Zrotation Yrotation Xrotation
						JOINT LeftForeArm
						{
							OFFSET 25.961220 -1.277207 -2.745643
							CHANNELS 3 Zrotation Yrotation Xrotation
							JOINT LeftHand
							{
								OFFSET 24.923361 0.898606 -0.117091
								CHANNELS 3 Zrotation Yrotation Xrotation
								End Site
								{
									OFFSET 0.000000 0.000000 0.000000
								}
							}
						}
					}
				}
				JOINT RightShoulder
				{
					OFFSET -8.175920 11.883285 -3.861528
					CHANNELS 3 Zrotation Yrotation Xrotation
					JOINT RightArm
					{
						OFFSET -9.601238 3.255117 -0.914307
						CHANNELS 3 Zrotation Yrotation Xrotation
						JOINT RightForeArm
						{
							OFFSET -25.374195 -1.332924 -2.140099
							CHANNELS 3 Zrotation Yrotation Xrotation
							JOINT RightHand
							{
								OFFSET -25.529810 0.777228 -0.555919
								CHANNELS 3 Zrotation Yrotation Xrotation
								End Site
								{
									OFFSET 0.000000 0.000000 0.000000
								}
							}
						}
					}
				}
			}
		}
	}
}
MOTION
Frames: 7
Frame Time: 0.033333
-33.028999 -6.427426 90.504631 177.216078 -1.697261 93.410980 -4.184056 0.014498 -1.267155 -3.246429 -3.371969 -4.449687 5.751071 15.073122 -9.978565 nan nan nan -2.287043 -4.186166 -7.909600 1.743690 -7.267921 6.431626 2.888150 -12.142631 19.107444 nan nan nan -1.842382 1.430983 -0.658619 1.914465 -2.683805 6.179813 -1.070841 0.468611 -6.765231 -1.063646 1.986994 -6.293449 -0.662249 5.772236 -0.620289 -26.543716 -0.272915 2.117512 -56.500848 1.786771 16.679732 13.589231 -27.452654 -3.857438 -10.567860 -6.088625 6.459022 24.998731 3.624040 1.243569 55.652958 -0.095676 13.318200 -9.896874 22.769049 -1.442299 7.074950 2.174702 5.028477 
-32.391376 -5.761357 90.963837 177.793562 0.502148 88.095691 -0.269680 2.673697 5.710341 -3.713096 -5.061013 -5.760030 2.737778 11.691726 -8.695346 nan nan nan 1.115974 -2.064840 1.685502 3.300430 1.333378 1.193419 2.606577 -5.760238 -8.109173 nan nan nan 0.537155 0.782285 7.568416 0.513704 -2.118211 0.499000 0.717594 -0.526472 -3.534878 1.839702 2.930795 -4.679004 3.395810 6.241459 5.981520 -28.254637 1.371582 3.441442 -53.253646 -0.259132 12.250004 7.402500 -28.620910 4.691953 -1.996463 -8.912546 -1.780214 25.617466 3.591360 2.775730 53.712458 2.234697 15.084375 -8.702313 21.968730 0.132824 5.720397 6.362058 -3.226078 
-32.371025 -5.666207 90.877136 177.827790 0.317778 87.955290 -0.423145 2.598429 5.976001 -3.711721 -5.035771 -5.914606 2.594998 11.773296 -8.643263 nan nan nan 0.895746 -1.913261 2.126472 3.264148 1.283454 0.804598 2.678824 -5.760954 -7.963173 nan nan nan 0.451267 0.812137 7.597967 0.340663 -2.097741 0.568602 0.648653 -0.627309 -3.502696 1.785802 2.450022 -4.220118 3.971607 5.225358 6.360827 -28.256548 1.650142 3.758909 -52.187871 -0.377885 12.100486 7.614087 -27.629345 6.649090 -4.728874 -12.295787 -0.199742 25.919803 3.735343 2.686530 53.447529 2.022467 14.828519 -8.965619 21.905903 0.641769 6.487501 7.820534 -3.136911 
-32.442570 -5.788185 90.878143 177.702038 0.107830 88.505743 -0.732280 2.429960 5.047638 -4.021410 -4.471492 -5.528689 2.983087 12.059043 -8.624074 nan nan nan 0.457333 -1.741615 1.185551 3.592346 1.372856 1.259826 2.628787 -5.824124 -7.971394 nan nan nan 0.685900 0.800445 7.400847 0.235499 -1.806581 0.191240 0.210540 -0.814045 -3.249445 1.411608 1.635183 -0.930702 1.929062 5.387336 15.922663 -28.647002 2.704766 4.129901 -51.256598 -1.638830 13.083134 7.459775 -27.807365 7.496607 -3.675512 -13.196097 -0.354885 26.404446 2.572699 2.502471 52.944439 3.118136 15.840848 -8.764178 21.864133 0.191448 5.833773 7.893128 -3.478753 
-32.437725 -5.769661 90.842049 177.634631 0.061934 88.496054 -0.771045 2.433576 5.037364 -4.023470 -4.417815 -5.506656 3.011758 12.092843 -8.675557 nan nan nan 0.381252 -1.721263 1.209172 3.582554 1.377278 1.186412 2.677160 -5.799204 -7.918508 nan nan nan 0.643925 0.843691 7.344710 0.256747 -1.787130 0.346183 0.207114 -0.806436 -3.284793 1.457543 1.719476 -0.956618 1.895266 5.385761 16.062428 -28.726189 2.750847 4.122190 -50.932820 -1.549147 13.046155 7.472690 -28.496112 7.556854 -3.772368 -13.443293 -0.175304 26.533862 2.517387 2.470002 52.625185 3.033254 15.763749 -8.912075 22.491563 0.100746 5.762184 8.044698 -3.299846 
-32.783695 -5.207088 90.638657 178.854051 -0.092325 87.804775 -1.260265 2.471228 6.289970 -4.108018 -4.385258 -5.835067 3.344046 11.932661 -9.316846 nan nan nan -0.580889 -2.501620 3.703861 4.289993 1.326942 -1.065130 2.452249 -5.665580 -8.156813 nan nan nan 1.634617 0.766630 6.478251 -0.036205 -2.415839 1.372845 -0.201479 -1.457006 -2.313879 0.973048 2.114085 -1.224875 1.222777 4.967738 15.256444 -28.925428 2.487603 5.065867 -50.847216 -1.829522 11.535674 8.282646 -29.789159 7.642952 -6.513001 -14.971010 0.505681 25.628811 2.456635 2.012805 54.044575 2.728760 14.426307 -10.905579 23.847589 -0.191345 7.024836 7.563502 -2.349425 
-32.792721 -5.214211 90.619354 178.795536 -0.072988 87.908199 -1.278348 2.343585 6.218896 -3.935799 -4.702566 -5.930970 3.539140 12.113869 -9.344840 nan nan nan -0.582509 -2.423026 3.644879 4.356621 1.533024 -1.269993 2.416109 -5.855609 -8.167298 nan nan nan 1.634599 0.690618 6.415973 -0.040531 -2.403308 1.290655 -0.148144 -1.358223 -2.447384 0.787942 2.386679 -1.740774 1.340899 5.280027 15.993942 -28.817597 2.597257 5.238204 -50.719633 -1.570158 11.609506 8.668654 -30.721475 8.212625 -7.354021 -15.501280 0.844530 25.432378 2.360482 2.049771 54.004728 2.442691 14.306766 -11.035052 24.934527 -0.065681 7.221818 7.564351 -2.647185 
